PathFileType	4	(X/Y/Z)	D:\TRACE\v60_Jaco2_6-2-23\BothDRS_Motion3_4-v60.trc
DataRate	CameraRate	NumFrames	NumMarkers	Units	OrigDataRate	OrigDataStartFrame	OrigNumFrames
100.00	100.00	      14	9	mm	100.00	2626	      7000
Frame#	Time	front left toe			Front right toe			aft left toe			aft right toe			Arm			FL body			FR body			AL Body			AR Body			
		X1	Y1	Z1	X2	Y2	Z2	X3	Y3	Z3	X4	Y4	Z4	X5	Y5	Z5	X6	Y6	Z6	X7	Y7	Z7	X8	Y8	Z8	X9	Y9	Z9	

2626	26.250	-157.81419	78.13738	-291.87509	240.58516	43.26739	-323.19717	-85.39972	-5.85761	330.23239	223.55470	27.82628	311.43542	73.25782	1156.79565	-627.49237	-55.99404	550.69647	-461.09848	101.51873	547.94537	-474.67169	33.90911	514.80804	478.53802	184.89487	502.83868	463.85620	
2627	26.260	-159.06384	92.14873	-290.79620	240.07787	42.80583	-323.40744	-86.06293	-5.34034	330.50845	228.90884	40.88175	311.34097	73.16210	1156.60632	-626.26154	-55.49091	550.49634	-459.48987	101.77839	547.70807	-473.68622	34.79552	514.34369	479.76132	185.60135	502.25040	465.39331	
2628	26.270	-160.23608	105.70651	-288.85361	239.39821	42.00192	-323.80682	-86.05000	-5.56305	330.61472	234.50697	52.93382	311.93704	73.58595	1155.93091	-624.69885	-54.89291	550.40558	-457.89670	102.12762	547.42084	-471.83502	34.74473	513.88855	481.49777	185.41591	501.24405	466.84396	
2629	26.280	-160.08423	118.46004	-285.93930	239.51181	41.51439	-324.02515	-85.90594	-5.92279	330.86227	240.05696	65.33999	312.91562	74.70184	1154.77258	-623.14832	-54.88136	550.16339	-456.37369	102.15753	547.08356	-469.98550	34.98584	512.95789	483.03333	185.69113	500.50421	468.57831	
2630	26.290	-159.78496	130.64911	-282.48538	240.82674	41.52147	-323.28998	-86.79784	-4.91404	330.41422	243.73584	77.30586	314.42673	76.27283	1154.11621	-621.19775	-55.18068	549.53931	-454.28964	102.63169	546.55786	-468.63004	34.82401	512.43890	484.55441	185.61206	499.88016	470.45117	
2631	26.300	-159.43248	142.29501	-279.10507	241.60123	41.55972	-322.86444	-85.87371	-5.76428	330.43542	248.16801	89.39282	317.01181	78.11642	1153.93933	-619.14948	-54.76706	548.97034	-452.68341	102.76311	546.00903	-466.62418	34.77758	512.10956	486.41049	185.45976	499.70502	472.45087	
2632	26.310	-158.57149	152.14473	-275.26743	241.57013	41.22072	-323.06339	-85.74435	-5.78357	330.58298	249.95502	100.26930	319.69064	79.37779	1153.69702	-617.06250	-54.61625	548.43494	-450.87555	102.71122	545.36169	-464.74808	34.58188	512.20374	488.54214	185.66734	499.64761	474.54388	
2633	26.320	-158.22870	160.07762	-271.34232	240.84863	40.44670	-323.50665	-85.80672	-5.65965	330.66531	251.61627	109.59116	322.55038	80.46385	1153.34827	-614.96014	-54.86738	547.79480	-448.90027	103.07866	544.29651	-462.54077	34.43181	512.71295	491.09198	185.43991	499.48465	476.63129	
2634	26.330	-158.56093	166.30739	-266.92767	240.64899	40.01582	-323.69968	-85.81224	-5.47442	330.77048	253.95872	116.29581	326.29480	81.42504	1152.59729	-613.36877	-54.57568	547.35669	-446.64862	103.00689	543.66888	-460.44760	34.07950	512.80463	493.32202	185.17017	499.65103	478.84433	
2635	26.340	-158.95107	170.42242	-262.12350	240.86325	39.67608	-323.30774	-86.15565	-4.80840	331.03058	255.62584	119.79150	330.53586	81.61803	1151.53271	-611.78107	-53.92262	546.62592	-444.13913	103.28289	542.93982	-458.01154	33.62772	512.91357	495.56332	184.75232	499.89236	481.27905	
2636	26.350	-158.91306	172.04991	-256.66678	241.40385	39.54939	-323.05295	-86.01897	-4.45562	331.10767	258.35223	120.48151	334.96564	82.03271	1150.30237	-610.56274	-53.66680	546.25153	-442.13409	103.62227	542.34503	-455.33881	33.26642	513.50244	497.72858	184.25954	500.06134	483.78067	
2637	26.360	-158.88448	170.01797	-250.79436	242.31386	39.41528	-322.76300	-85.90052	-4.16032	330.90320	260.75873	118.34985	340.29605	82.55382	1149.02832	-609.25812	-53.58161	545.88800	-439.79355	103.92753	541.71387	-452.95700	32.80808	513.95209	500.01471	183.72583	500.32007	486.31363	
2638	26.370	-158.66759	165.22023	-245.17958	242.14752	38.82878	-323.03436	-85.80746	-3.78839	330.93097	262.46909	114.28882	345.39520	83.30176	1148.03284	-607.90143	-53.34146	545.50562	-437.57248	104.24446	541.06189	-450.46130	32.20789	514.62854	502.46494	183.05348	500.87903	488.81924	
2639	26.380	-157.88246	159.49362	-239.80692	241.69934	38.22475	-323.27582	-85.68683	-3.50955	331.07071	263.18698	109.05484	350.35318	84.13251	1147.13013	-606.08899	-53.23691	544.90692	-435.34311	104.45879	540.37866	-448.58606	31.44211	515.22925	504.86163	182.62207	501.43454	491.32547	
